<svg width="19" height="19" viewBox="0 0 19 19" fill="none" xmlns="http://www.w3.org/2000/svg">
<g clip-path="url(#clip0_0_1218)">
<path d="M17.0521 11.9222H15.4783V10.3483C15.4783 9.69225 14.9464 9.16037 14.2905 9.16037C13.6342 9.16037 13.1025 9.69225 13.1025 10.3483V11.9222H11.5285C10.8725 11.9222 10.3406 12.454 10.3406 13.1101C10.3406 13.7662 10.8726 14.298 11.5285 14.298H13.1025V15.872C13.1025 16.528 13.6343 17.0599 14.2905 17.0599C14.9465 17.0599 15.4783 16.528 15.4783 15.872V14.298H17.0521C17.7084 14.298 18.24 13.7662 18.24 13.1101C18.2401 12.4541 17.7084 11.9222 17.0521 11.9222Z" fill="#A8A8A8"/>
<path d="M11.9145 15.486H11.5285C10.2185 15.486 9.15272 14.4202 9.15272 13.1101C9.15272 11.8 10.2185 10.7342 11.5285 10.7342H11.9145V10.3483C11.9145 9.03824 12.9803 7.97243 14.2904 7.97243C15.6005 7.97243 16.6663 9.03824 16.6663 10.3483V10.7342H17.0521C17.2096 10.7342 17.3634 10.75 17.5124 10.7794C19.5894 8.38543 19.492 4.74654 17.217 2.47128C16.0652 1.31948 14.5338 0.68512 12.9049 0.68512C11.6772 0.68512 10.4996 1.04789 9.5004 1.72174C8.50119 1.04789 7.32356 0.68512 6.09594 0.68512C4.46715 0.68512 2.93575 1.31948 1.78379 2.47135C-0.594607 4.84999 -0.594607 8.72039 1.78385 11.0991L8.48452 17.7997C8.55363 17.8687 8.6268 17.9383 8.70212 18.0066C8.92854 18.2121 9.21441 18.3149 9.5005 18.3149C9.78606 18.3149 10.0716 18.2124 10.2979 18.0075C10.3739 17.9387 10.4477 17.8685 10.5173 17.7988L11.9636 16.3527C11.9315 16.1974 11.9146 16.0366 11.9146 15.872V15.486H11.9145V15.486Z" fill="#A8A8A8"/>
</g>
<defs>
<clipPath id="clip0_0_1218">
<rect width="19" height="19" fill="white"/>
</clipPath>
</defs>
</svg>
