<svg width="20" height="20" viewBox="0 0 20 20" fill="none" xmlns="http://www.w3.org/2000/svg">
<path d="M3.84625 8.46125L0.833125 10.4488C0.8975 12.2438 1.53813 13.9744 2.5 15.3206L5.705 15.1281L7.69187 13.0769L6.66625 9.61563L3.84562 8.46187L3.84625 8.46125ZM3.91 7.62813L6.98688 8.91L9.615 6.73063V3.7175L6.79438 1.41C5.1275 1.98688 3.78125 3.07687 2.69187 4.42313L3.91 7.62813ZM6.53875 15.4488L7.43625 18.7819C8.26937 19.0381 9.16688 19.1663 10.0644 19.1663C10.9619 19.1663 11.8594 19.0381 12.6925 18.7819L13.59 15.5125L11.7313 13.5894H8.46187L6.53875 15.4481V15.4488ZM14.1669 15.1281L17.5 15.3206C18.4613 13.9106 19.1025 12.2438 19.1669 10.4488L16.09 8.46125L13.2694 9.615L12.2437 13.1406L14.1669 15.1281ZM16.09 7.56437L17.3081 4.42313C16.2825 3.07687 14.8725 1.9875 13.2056 1.41L10.385 3.7175V6.73063L13.0131 8.84625L16.09 7.56437ZM2.17937 5.25625C1.41 6.47437 0.96125 7.94875 0.8975 9.48687L3.26937 7.94812L2.17937 5.25563V5.25625ZM6.47438 18.4613L5.76937 15.9613L3.14125 16.0894C4.03875 17.115 5.1925 17.9481 6.47438 18.4613ZM13.5256 18.4613C14.8075 17.9487 15.9613 17.115 16.8588 16.0894L14.2306 15.9613L13.5256 18.4613ZM17.8206 5.25625L16.7306 7.94875L19.1025 9.4875C19.0381 7.94875 18.59 6.47438 17.8206 5.25688V5.25625ZM12.3075 1.09C11.6025 0.8975 10.8331 0.769375 10 0.769375C9.16687 0.769375 8.46125 0.8975 7.6925 1.09L10 2.94875L12.3075 1.09ZM10 20C4.4875 20 0 15.5125 0 10C0 4.4875 4.48688 0 10 0C15.5125 0 20 4.48688 20 10C20 15.5131 15.5125 20 10 20ZM10 7.43563L7.43563 9.55125L8.52563 12.7563H11.5387L12.5644 9.48687L10 7.43563Z" fill="black"/>
</svg>
