<svg width="20" height="20" viewBox="0 0 20 20" fill="none" xmlns="http://www.w3.org/2000/svg">
<g clip-path="url(#clip0_86_11296)">
<path d="M10 0C4.45188 0 0 4.45188 0 10C0 15.5481 4.45188 20 10 20C15.5481 20 20 15.5481 20 10C20 4.45188 15.5481 0 10 0ZM3.22562 3.87125C4.645 5.41937 5.54812 7.48438 5.6125 9.61312H0.77375C0.9025 7.355 1.74125 5.355 3.22562 3.87125ZM0.774375 10.3869H5.54875C5.48438 12.645 4.58125 14.645 3.16188 16.1287C1.7425 14.645 0.90375 12.645 0.775 10.3869H0.774375ZM9.61312 19.2256C7.355 19.1612 5.29063 18.2581 3.74187 16.8387C5.29 15.1612 6.3225 12.9031 6.38688 10.4519H9.6125V19.2262L9.61312 19.2256ZM9.61312 9.61312H6.3875C6.32313 7.16125 5.355 4.96812 3.7425 3.22625C5.29063 1.87125 7.35563 0.90375 9.61375 0.839375V9.61375L9.61312 9.61312ZM19.2256 9.61312H14.4513C14.5156 7.355 15.4187 5.355 16.8381 3.87125C18.2575 5.355 19.0963 7.41937 19.225 9.61312H19.2256ZM10.3869 0.774375C12.645 0.83875 14.7094 1.74188 16.2581 3.16125C14.71 4.83875 13.6775 7.09688 13.6131 9.54813H10.3875V0.77375L10.3869 0.774375ZM10.3869 19.2256V10.3869H13.6125C13.6769 12.8387 14.645 15.0319 16.2575 16.7738C14.7094 18.1287 12.6444 19.0963 10.3862 19.2256H10.3869ZM16.7744 16.1287C15.355 14.5806 14.4519 12.5156 14.3875 10.3869H19.1619C19.0975 12.645 18.2588 14.645 16.775 16.1287H16.7744Z" fill="black"/>
</g>
<defs>
<clipPath id="clip0_86_11296">
<rect width="20" height="20" fill="white"/>
</clipPath>
</defs>
</svg>
