<svg width="20" height="20" viewBox="0 0 20 20" fill="none" xmlns="http://www.w3.org/2000/svg">
<path d="M12.2294 0.28625C11.5288 0.095 10.7006 0.03125 10 0.03125C5.28626 0.03125 1.27376 3.21625 0.254388 7.80187C-0.318737 10.4131 0.0631376 13.0888 1.52814 15.3181C2.99314 17.5475 5.09501 19.14 7.77001 19.7131C8.47064 19.9044 9.29876 19.9681 9.99939 19.9681C14.6494 19.9681 18.7256 16.7831 19.745 12.1975C20.3181 9.58625 19.9363 6.91062 18.4713 4.68125C17.0063 2.45187 14.8406 0.923125 12.2294 0.28625ZM3.50314 16.5925C3.43939 16.5288 3.31189 16.465 3.24814 16.3375C3.05689 16.0825 2.86626 15.9556 2.67501 15.7006C2.48376 15.4456 2.35626 15.1913 2.16564 15C1.97439 14.745 1.84689 14.4906 1.72001 14.1719C1.52876 13.79 1.27439 13.3438 1.21064 12.9619C1.01939 12.58 0.955638 12.07 0.891888 11.6881C0.828138 11.3694 0.828138 11.115 0.828138 10.7963C0.764388 9.90438 0.828138 8.94938 1.01939 8.0575C2.93001 9.07687 5.09564 7.61188 6.05126 6.5925C7.00689 5.44625 8.53564 4.68188 10.0006 4.68188C11.975 4.68188 13.5675 5.70125 14.5869 7.1025C14.8419 7.48438 15.0963 7.99437 15.2875 8.44C15.2875 8.50375 15.2875 8.50375 15.3513 8.63125C15.3513 8.695 15.3513 8.8225 15.415 8.88625C15.4788 9.205 15.4788 9.52312 15.5425 9.84188C15.5425 10.2238 15.5425 10.67 15.4788 11.0519C15.16 12.4531 14.3963 13.6631 13.1856 14.3638C11.9119 15.1919 10.2556 15.4469 8.79064 15.0006C7.07064 14.7456 4.45939 14.8094 3.50376 16.5931L3.50314 16.5925ZM6.81501 1.17813C6.81501 1.17813 6.81501 1.17813 6.87876 1.11437C7.13376 0.986875 7.26064 0.986875 7.51564 0.923125L7.77064 0.859375C8.02564 0.795625 7.96189 0.795625 8.21626 0.795625C8.21626 0.795625 8.21626 0.795625 8.28001 0.795625C8.53501 0.795625 8.78939 0.731875 8.91689 0.731875H8.98064C9.23564 0.731875 9.49001 0.731875 9.61751 0.731875H9.74501C9.80876 0.731875 9.93626 0.731875 10.0638 0.731875C10.1275 0.731875 10.255 0.731875 10.255 0.731875C10.3188 0.731875 10.51 0.731875 10.5738 0.731875C10.6375 0.731875 10.765 0.731875 10.765 0.731875C10.8288 0.731875 10.9563 0.731875 11.0838 0.731875C11.1475 0.731875 11.275 0.731875 11.3388 0.731875C11.53 0.731875 11.6575 0.795625 11.8481 0.795625C11.9119 0.795625 11.9756 0.795625 12.1031 0.859375C12.2944 0.923125 12.485 0.986875 12.6763 1.05063C12.8675 1.11437 12.995 1.17813 13.1219 1.24188C13.5038 1.43313 13.8863 1.62375 14.2681 1.815C14.5231 2.00625 14.7775 2.13375 15.0325 2.32438C15.5419 2.64313 15.7331 2.83375 15.9881 3.025C16.0519 3.08875 16.1794 3.21625 16.37 3.34375C16.5613 3.535 16.6888 3.6625 16.8156 3.85312C16.8794 3.91687 17.0069 4.10813 17.0706 4.17188C17.1981 4.36312 17.3894 4.49062 17.5163 4.745C17.7075 5.06375 18.0256 5.50937 18.2169 5.89125C19.1088 7.86562 19.4906 9.71313 19.045 12.0063C18.9813 12.2612 18.8538 12.5156 18.8538 12.7706V12.8344C18.79 13.0894 18.6625 13.2163 18.5988 13.4713C18.5988 13.535 18.5988 13.535 18.535 13.6625C18.4713 13.9175 18.3438 14.0444 18.2163 14.2994C18.2163 14.2994 18.2163 14.3631 18.1525 14.3631C18.0888 14.5544 17.8975 14.745 17.8338 14.9363C17.8338 14.9363 17.8338 14.9363 17.8338 15C17.6425 15.1913 17.5788 15.3819 17.4519 15.5731L17.3881 15.6369C17.1969 15.8281 17.1331 15.9556 17.0063 16.1462L16.9425 16.21C16.7513 16.4013 16.6238 16.5287 16.4331 16.7194C16.2419 16.9106 16.1144 17.0381 15.9238 17.1012L15.7325 17.2925C15.5413 17.4837 15.4138 17.5475 15.1594 17.6744L15.0956 17.7381C14.9044 17.8019 14.7138 17.9931 14.5225 18.0569C14.5225 18.0569 14.4588 18.0569 14.4588 18.1206C14.2675 18.1844 14.0769 18.3756 13.8856 18.4394C13.8856 18.4394 13.8856 18.4394 13.8219 18.4394C13.5669 18.5031 13.44 18.6306 13.185 18.6944C13.185 18.6944 13.1213 18.6944 13.1213 18.7581C12.8663 18.8219 12.7394 18.9494 12.4844 18.9494H12.4206C12.1656 19.0131 11.9113 19.0131 11.7838 19.1406C11.7838 19.1406 11.7838 19.1406 11.72 19.1406C11.465 19.1406 11.3381 19.2044 11.0831 19.2044H11.0194C10.7644 19.2044 10.51 19.2044 10.3825 19.2044H10.0006C9.93689 19.2044 9.80939 19.2044 9.68189 19.2044C9.61814 19.2044 9.49064 19.2044 9.49064 19.2044C9.42689 19.2044 9.29939 19.2044 9.17189 19.2044C9.10814 19.2044 8.98064 19.2044 8.98064 19.2044C8.91689 19.2044 8.72564 19.2044 8.66189 19.1406C8.59814 19.1406 8.59814 19.1406 8.47064 19.1406C8.27939 19.1406 8.15189 19.0769 7.96126 19.0769C7.06939 18.8219 6.17751 18.5037 5.35001 17.9944C4.96814 17.7394 4.58564 17.485 4.20376 17.23C4.26751 17.1663 4.26751 17.1663 4.14001 17.1025C5.03189 15.0644 8.34376 15.8925 8.34376 15.8925C10.0638 16.4019 11.8469 16.1475 13.3119 15.2556C14.7131 14.3638 15.6688 13.0263 15.9869 11.4975C16.1781 10.6694 16.1781 9.7775 15.9869 8.95C15.9869 8.88625 15.9869 8.75875 15.9231 8.695C15.9231 8.63125 15.9231 8.50375 15.8594 8.44C15.095 5.82875 12.8656 3.98125 9.99939 3.98125C8.27939 3.98125 6.56001 4.74562 5.41314 6.08312C5.41314 6.08312 2.99251 8.50375 1.08189 7.22937V7.16563C1.14564 6.91062 1.27314 6.78375 1.33689 6.52875L1.78251 5.57312C1.84626 5.38187 2.03751 5.19125 2.10126 5L3.12064 3.6625C3.24814 3.535 3.63001 3.21687 3.63001 3.21687L3.82126 3.02562L4.26689 2.64375C4.39439 2.51625 4.58564 2.38875 4.84001 2.19812L5.03126 2.07063C5.35001 1.87937 5.28626 1.87937 5.47689 1.81562C5.47689 1.81562 5.47689 1.81562 5.54064 1.75188C5.73189 1.68813 5.92251 1.49688 6.11376 1.43313L6.81439 1.17813H6.81501Z" fill="black"/>
</svg>
