<svg width="20" height="20" viewBox="0 0 20 20" fill="none" xmlns="http://www.w3.org/2000/svg">
<path d="M3.78188 16.7306C3.97438 16.5381 4.16625 16.2819 4.42313 15.9613L5 16.41L5.44875 15.7687L4.87187 15.32C5.25625 14.7431 5.57688 14.0381 5.83313 13.3325L6.6025 13.5888L6.85875 12.8194L6.08938 12.5631C6.28188 11.8581 6.41 11.1531 6.41 10.3837H7.24312V9.61438H6.41C6.41 8.845 6.28188 8.14 6.08938 7.435L6.85875 7.11438L6.6025 6.345L5.83313 6.60125C5.57688 5.89625 5.25625 5.255 4.87187 4.61438L5.44875 4.23L5 3.58875L4.42313 4.0375C4.23063 3.78125 3.97438 3.52437 3.78188 3.26813C5.38438 1.72938 7.62813 0.8325 10 0.8325C12.3719 0.8325 14.5512 1.73 16.2181 3.26813C15.9619 3.52437 15.7694 3.78125 15.5769 4.0375L15 3.58875L14.5512 4.23L15.1925 4.67875C14.8081 5.25563 14.4875 5.96063 14.2313 6.66563L13.4619 6.40938L13.2056 7.17875L13.975 7.435C13.7825 8.14 13.6544 8.845 13.6544 9.61438H12.8212V10.3837H13.6544C13.6544 11.1531 13.7825 11.8581 13.975 12.5631L13.2056 12.8194L13.3981 13.5888L14.1675 13.3325C14.4237 14.0375 14.7444 14.6787 15.1287 15.32L14.5519 15.7687L15.0006 16.41L15.5775 15.9613C15.77 16.2175 16.0263 16.4737 16.2188 16.7306C14.6163 18.2694 12.3725 19.1663 10.0006 19.1663C7.62875 19.1663 5.44938 18.2687 3.7825 16.7306H3.78188ZM3.205 16.2181C1.73062 14.6156 0.833125 12.4362 0.833125 10C0.833125 7.56375 1.73062 5.44875 3.205 3.78188C3.3975 4.03813 3.58938 4.23063 3.71812 4.42313L3.01312 4.93625L3.46187 5.5775L4.16687 5.065C4.4875 5.64188 4.80813 6.21875 5.06437 6.86L4.295 7.11625L4.55125 7.88562L5.32062 7.62937C5.51312 8.27063 5.57688 8.91125 5.64125 9.5525H4.80813V10.3219H5.5775C5.5775 10.9631 5.44938 11.6681 5.25688 12.245L4.4875 11.9887L4.23125 12.7581L5.00063 13.0144C4.74438 13.6556 4.4875 14.2325 4.10313 14.8094L3.39812 14.2969L2.94937 14.9381L3.65438 15.4506C3.59 15.7713 3.39813 15.9631 3.20563 16.22L3.205 16.2181ZM16.795 16.2181C16.6025 15.9619 16.4106 15.7694 16.2825 15.4488L16.9875 14.9363L16.5387 14.295L15.8337 14.8075C15.4494 14.2306 15.1925 13.6537 14.9363 13.0125L15.7056 12.7563L15.4494 11.9869L14.68 12.2431C14.4875 11.6663 14.3594 10.9612 14.3594 10.32H15.1287V9.55062H14.3594C14.4237 8.90938 14.4875 8.26875 14.68 7.6275L15.4494 7.88375L15.7056 7.11438L14.9363 6.85812C15.1925 6.21687 15.5131 5.64 15.8337 5.06312L16.5387 5.57625L16.9875 4.935L16.2825 4.42188C16.4106 4.22937 16.6031 3.97312 16.795 3.78062C18.2694 5.4475 19.1669 7.5625 19.1669 9.99875C19.1669 12.435 18.2694 14.6144 16.795 16.2169V16.2181ZM10 20C15.5125 20 20 15.5125 20 10C20 4.4875 15.5125 0 10 0C4.4875 0 0 4.48688 0 10C0 15.5131 4.48688 20 10 20Z" fill="black"/>
</svg>
