<svg width="20" height="18" viewBox="0 0 20 18" fill="none" xmlns="http://www.w3.org/2000/svg">
<path d="M12 9.92249L14.5162 14.8256H19.0969C19.6131 14.8256 20 15.2125 20 15.7287V16.6319C20 17.1481 19.6131 17.535 19.0969 17.535H13.6131C13.0969 17.535 12.5162 17.2125 12.3225 16.6962L10.5163 12.9544L11.0325 11.9869L13.1613 16.3094C13.29 16.4381 13.4838 16.6319 13.6131 16.6319H19.0969V15.7287H14L13.7419 15.2125L11.4838 10.89L12 9.92249ZM9.48375 4.95436L7.48375 0.88999C7.22563 0.438115 6.645 0.180615 6.12875 0.438115L5.48375 0.82499C4.9675 1.08311 4.77437 1.66374 5.03187 2.11561L7.935 7.98686L8.45125 7.01936L7.48375 5.08374L8.3225 4.63186L8.90312 5.92249C8.9675 5.92249 9.48375 4.95499 9.48375 4.95499V4.95436ZM8 3.85749L6.70937 1.34124C6.70937 1.27686 6.645 1.27686 6.58063 1.34124L5.87125 1.72811C5.7425 1.72811 5.7425 1.79249 5.7425 1.92186L6.96813 4.43811L8.00062 3.85749H8ZM7.6775 16.8256C7.355 17.2775 6.90312 17.6 6.38688 17.6644H0.903125C0.386875 17.6644 0 17.2775 0 16.7612V15.8581C0 15.3419 0.386875 14.955 0.903125 14.955H5.48375L12.4513 0.890615C12.7094 0.43874 13.29 0.18124 13.8062 0.43874L14.5156 0.825615C15.0319 1.08374 15.225 1.66436 14.9675 2.18061L7.67688 16.8256H7.6775ZM11.9356 3.85749L13.2263 1.34124C13.2263 1.27686 13.2906 1.27686 13.355 1.34124L14.0644 1.72811C14.1287 1.72811 14.1288 1.79249 14.1288 1.85686L12.9031 4.37311L11.9356 3.85686V3.85749ZM6.25812 15.3419L6 15.8581H0.83875V16.7612H6.3225C6.58063 16.7612 6.70937 16.6325 6.77437 16.4387L12.3875 5.14811L11.5487 4.69624L6.25812 15.3412V15.3419Z" fill="black"/>
</svg>
