<svg width="22" height="22" viewBox="0 0 22 22" fill="none" xmlns="http://www.w3.org/2000/svg">
<path d="M19.4834 2.65683H17.7122V1.77122C17.7117 1.30161 17.525 0.851364 17.1929 0.519297C16.8609 0.18723 16.4106 0.00046891 15.941 0L5.31366 0C4.84405 0.00046891 4.39381 0.18723 4.06174 0.519297C3.72967 0.851364 3.54291 1.30161 3.54244 1.77122V2.65683H1.77122C1.30161 2.6573 0.851364 2.84406 0.519297 3.17613C0.18723 3.5082 0.00046891 3.95844 0 4.42805L0 7.08489C0.00117175 8.02404 0.374769 8.92439 1.03885 9.58848C1.70293 10.2526 2.60329 10.6262 3.54244 10.6273H3.82761C4.19665 11.9829 4.95243 13.2018 6.00265 14.135C7.05288 15.0682 8.35212 15.6754 9.74172 15.8825L9.74172 19.4834H5.31366V21.2547H15.941V19.4834H11.5129L11.5129 15.8799C12.9206 15.7059 14.2431 15.1116 15.3079 14.1746C16.3727 13.2376 17.1303 12.0014 17.482 10.6273H17.7122C18.6514 10.6262 19.5517 10.2526 20.2158 9.58848C20.8799 8.92439 21.2535 8.02404 21.2547 7.08489V4.42805C21.2542 3.95844 21.0674 3.5082 20.7354 3.17613C20.4033 2.84406 19.9531 2.6573 19.4834 2.65683ZM3.54244 8.85611C3.07283 8.85564 2.62259 8.66888 2.29052 8.33681C1.95845 8.00474 1.77169 7.5545 1.77122 7.08489L1.77122 4.42805H3.54244V8.85611ZM15.941 8.85611C15.941 9.56776 15.798 10.2722 15.5206 10.9275C15.2431 11.5829 14.8369 12.1758 14.3259 12.6712C13.815 13.1665 13.2097 13.5542 12.5461 13.8112C11.8824 14.0681 11.1739 14.1892 10.4626 14.1671C9.05253 14.0793 7.73054 13.4514 6.77157 12.4139C5.81259 11.3764 5.29043 10.0092 5.31366 8.59662L5.31366 1.77122L15.941 1.77122V8.85611ZM19.4834 7.08489C19.483 7.5545 19.2962 8.00474 18.9641 8.33681C18.6321 8.66888 18.1818 8.85564 17.7122 8.85611V4.42805H19.4834V7.08489Z" fill="#17191C"/>
</svg>
