<svg width="20" height="23" viewBox="0 0 20 23" fill="none" xmlns="http://www.w3.org/2000/svg">
<path d="M12.6741 0.00989479C13.3165 0.00981825 13.9472 0.182537 14.4999 0.509951C15.0527 0.837366 15.5072 1.30742 15.8158 1.87087C16.1245 2.43431 16.2759 3.0704 16.2543 3.71249C16.2326 4.35457 16.0386 4.979 15.6927 5.52036H18.4601C19.2205 5.52036 19.8377 6.13753 19.8377 6.89798V10.7553C19.8377 11.0729 19.7281 11.3807 19.5273 11.6268C19.3264 11.8728 19.0468 12.0419 18.7356 12.1054V18.47C18.7356 19.3848 18.3856 20.2651 17.7573 20.9301C17.129 21.5951 16.27 21.9945 15.3566 22.0463L15.1538 22.0518H4.6839C3.76901 22.0518 2.88878 21.7018 2.22377 21.0735C1.55876 20.4451 1.1594 19.5862 1.1076 18.6727L1.10209 18.47L1.10209 12.1054C0.4739 11.9775 0 11.4221 0 10.7553L0 6.89798C0 6.13753 0.617172 5.52036 1.37762 5.52036H4.14497C3.6506 4.75226 3.46836 3.82431 3.63553 2.92629C3.80271 2.02827 4.30666 1.22805 5.04432 0.689312C5.78198 0.150568 6.6976 -0.0859902 7.6039 0.0280199C8.5102 0.14203 9.3387 0.597994 9.91994 1.30265C10.2555 0.897638 10.6763 0.571748 11.1524 0.348271C11.6285 0.124793 12.1481 0.00924861 12.6741 0.00989479ZM9.09227 12.1318H2.75523V18.47C2.75525 18.954 2.93727 19.4203 3.26515 19.7764C3.59303 20.1324 4.04281 20.3522 4.5252 20.392L4.6839 20.3986H9.09227L9.09227 12.1318ZM17.0824 12.1318L10.7454 12.1318L10.7454 20.3986H15.1538C15.638 20.3986 16.1045 20.2164 16.4605 19.8883C16.8166 19.5602 17.0363 19.1101 17.0758 18.6276L17.0824 18.47V12.1318ZM9.09227 7.1735L1.65314 7.1735L1.65314 10.4798L9.09227 10.4787V7.1735ZM18.1845 10.4798V7.1735H10.7454V10.4787L18.1845 10.4798ZM12.6741 1.66303C12.1626 1.66303 11.672 1.86623 11.3103 2.22793C10.9486 2.58962 10.7454 3.08019 10.7454 3.5917V5.51926H12.7005L12.8328 5.51375C13.3287 5.47258 13.7895 5.24133 14.1189 4.86833C14.4483 4.49534 14.6207 4.00947 14.6002 3.51228C14.5797 3.01509 14.3679 2.54506 14.0089 2.20043C13.65 1.85581 13.1717 1.66326 12.6741 1.66303ZM7.16361 1.66303C6.66599 1.66326 6.18772 1.85581 5.82877 2.20043C5.46981 2.54506 5.25794 3.01509 5.23745 3.51228C5.21696 4.00947 5.38943 4.49534 5.71881 4.86833C6.04819 5.24133 6.509 5.47258 7.00491 5.51375L7.13716 5.51926L9.09227 5.51926V3.5917L9.08566 3.433C9.04583 2.95061 8.82608 2.50083 8.47002 2.17295C8.11396 1.84507 7.64763 1.66305 7.16361 1.66303Z" fill="#17191C"/>
</svg>
