<svg width="147" height="41" viewBox="0 0 147 41" fill="none" xmlns="http://www.w3.org/2000/svg">
<g clip-path="url(#clip0_0_1031)">
<path d="M0 25.8999C0.51562 25.3679 1.01078 24.8482 1.51617 24.3367C2.46352 23.375 3.41905 22.4235 4.36027 21.4557C4.54032 21.2716 4.72243 21.202 4.98024 21.1979C10.1917 21.1386 15.4052 21.1897 20.6166 21.1693C21.5046 21.1652 22.3517 20.979 23.1067 20.4818C23.6367 20.1319 24.005 19.6736 24.1584 19.0393C24.3528 18.2413 24.5881 17.4515 24.8009 16.6576C25.026 15.8126 24.7661 15.0637 24.0521 14.5501C23.4403 14.1102 22.763 13.8606 21.9957 13.8606C19.5322 13.8606 17.0687 13.8913 14.6092 13.8278C13.3488 13.7951 12.0884 13.9588 10.828 13.8033C10.0137 13.703 9.22797 13.5189 8.53024 13.0687C7.73635 12.5551 7.23301 11.9352 7.31485 10.863C7.45603 9.0256 7.77727 7.25162 8.63459 5.60859C10.1487 2.70925 12.5672 0.933226 15.6835 0.0513521C15.8471 0.00429148 16.0292 0.0083837 16.2032 0.0104298C20.1522 0.0472598 24.1012 0.086136 28.0502 0.127058C30.1126 0.149565 32.1731 0.176165 34.2356 0.200718C35.5717 0.217087 36.9098 0.245733 38.2459 0.249825C38.5365 0.249825 38.5794 0.315301 38.4751 0.581295C37.7671 2.37164 36.5211 3.72003 35.0028 4.85153C33.9962 5.60041 32.8913 6.12421 31.6493 6.34724C31.5879 6.35747 31.5265 6.37384 31.4651 6.37998C29.9203 6.5539 29.1673 5.73136 29.4436 4.17222C29.5254 3.70366 29.5254 3.69957 29.0609 3.70366C25.337 3.72822 21.6131 3.75277 17.8892 3.77937C17.7275 3.77937 17.5577 3.83461 17.4042 3.80392C16.5674 3.63819 16.0784 4.02695 15.6814 4.72876C15.307 5.38761 14.8118 5.97689 14.3862 6.6071C14.0547 7.09816 13.8399 7.64243 13.7867 8.23989C13.7192 8.98263 14.0261 9.48188 14.7197 9.77243C15.0696 9.91975 15.4379 9.99137 15.8144 9.98727C16.639 9.97909 17.4636 9.93612 18.2861 9.94226C19.9353 9.95658 21.5844 9.96272 23.2295 10.0978C24.3508 10.1898 25.4823 10.2594 26.5565 10.595C28.3161 11.1433 29.7975 12.0498 30.3398 13.9731C30.6712 15.1476 30.5362 16.3159 30.2804 17.4883C29.597 20.6168 27.8476 22.9903 25.1979 24.7418C24.1134 25.4579 22.8817 25.6973 21.6233 25.861C20.8785 25.9572 20.1276 25.951 19.3787 25.951C13.0788 25.951 6.77672 25.951 0.476744 25.949C0.333516 25.949 0.18415 25.9838 0.00409222 25.9019L0 25.8999Z" fill="#222222"/>
<path d="M66.0731 25.7135C66.3145 25.024 66.5416 24.3672 66.7728 23.7124C68.9663 17.4984 71.1576 11.2843 73.3593 5.07437C73.4738 4.74904 73.3899 4.70607 73.0871 4.70607C69.6865 4.69994 66.2879 4.68152 62.8873 4.6672C62.7624 4.6672 62.6376 4.6672 62.4719 4.6672C62.7236 4.02676 62.965 3.41907 63.2003 2.80524C63.5215 1.96838 63.8428 1.12947 64.1477 0.286472C64.2234 0.0757222 64.3236 -0.0286295 64.5487 0.00820051C64.5978 0.016385 64.649 0.00820051 64.6981 0.00820051C74.3619 0.00820051 84.0256 0.00820051 93.6894 0.00820051C94.1764 0.00820051 94.1764 0.00820051 94.0495 0.452207C93.6465 1.86607 93.2331 3.27584 92.8444 4.6938C92.7666 4.98025 92.6336 5.04573 92.3513 5.04573C88.0892 5.0355 83.8251 5.04164 79.5631 5.03141C79.2623 5.03141 79.1395 5.12143 79.0352 5.39971C76.5532 12.0271 74.0549 18.6483 71.575 25.2736C71.4523 25.5989 71.3172 25.7278 70.951 25.7237C69.3407 25.6992 67.7284 25.7135 66.0751 25.7135H66.0731Z" fill="#222222"/>
<path d="M56.1944 0.0470577C55.955 0.362159 55.732 0.656799 55.5069 0.947347C48.4335 10.1057 41.3581 19.2621 34.2908 28.4246C34.078 28.6988 33.8673 28.8072 33.5174 28.8031C31.2933 28.7847 29.0671 28.7949 26.8409 28.7949C26.7059 28.7949 26.5708 28.7949 26.4399 28.7949C26.3908 28.6476 26.4972 28.5924 26.5545 28.5228C33.2268 20.3527 39.9033 12.1846 46.5777 4.01447C47.613 2.74793 48.6463 1.47934 49.6776 0.210747C49.7758 0.0900261 49.8679 0.00408936 50.0459 0.00408936C52.047 0.0102277 54.046 0.00818158 56.0471 0.0102277C56.0799 0.0102277 56.1126 0.0245505 56.1944 0.0450116V0.0470577Z" fill="#222222"/>
<path d="M42.0988 25.6582C43.7909 25.1999 45.4851 24.7436 47.1772 24.2853C49.4648 23.6653 51.7503 23.0412 54.0399 22.4315C54.2752 22.3681 54.3284 22.2658 54.3243 22.0468C54.2854 19.0534 54.2568 16.0599 54.2199 13.0644C54.2015 11.5564 54.1708 10.0464 54.1463 8.5384C54.1278 7.29232 54.1115 6.04419 54.091 4.79811C54.089 4.64465 54.0849 4.50961 54.1954 4.3807C54.9524 3.48451 55.7013 2.58217 56.4563 1.68188C56.4768 1.65733 56.5116 1.643 56.575 1.60004C56.7714 2.49623 56.9658 3.36788 57.1561 4.24157C58.2999 9.47348 59.4436 14.7074 60.5854 19.9393C60.9741 21.7154 61.3568 23.4934 61.7414 25.2715C61.8356 25.7114 61.8315 25.7114 61.3977 25.7114C56.9228 25.7114 52.448 25.7114 47.9731 25.7114H42.1049C42.1028 25.693 42.1008 25.6766 42.0988 25.6582Z" fill="#222222"/>
<path d="M74.7917 36.6745C75.3257 36.0709 75.8577 35.4653 76.3917 34.8617C77.1611 33.9941 77.9304 33.1266 78.6998 32.259C78.7939 32.1526 78.8675 32.0012 79.0394 32.2017C80.3264 33.6913 81.6216 35.1747 82.9802 36.7359C82.393 36.7359 81.8794 36.7543 81.3679 36.7298C81.0569 36.7134 80.9587 36.8075 80.973 37.1206C80.9976 37.6689 80.973 38.2173 80.9853 38.7656C80.9914 38.9928 80.9484 39.0992 80.6845 39.0971C79.4855 39.0848 78.2864 39.0869 77.0874 39.0971C76.8501 39.0971 76.7928 39.0153 76.801 38.7922C76.8214 38.2316 76.8071 37.671 76.8276 37.1103C76.8358 36.8771 76.7785 36.7748 76.5227 36.783C75.9559 36.7993 75.3871 36.787 74.8203 36.787C74.8122 36.7502 74.804 36.7134 74.7958 36.6786L74.7917 36.6745Z" fill="#222222"/>
<path d="M88.5518 30.8922C87.9993 31.5285 87.5124 32.0932 87.0233 32.6539C86.2356 33.5562 85.4437 34.4545 84.6621 35.3609C84.523 35.5225 84.4412 35.5839 84.2672 35.3875C82.9925 33.9327 81.7075 32.4882 80.4246 31.0415C80.4001 31.0149 80.3878 30.9781 80.3244 30.8697C80.9259 30.8697 81.4784 30.8492 82.0288 30.8779C82.3603 30.8942 82.4257 30.7694 82.4094 30.4727C82.3787 29.9387 82.3889 29.4006 82.3684 28.8665C82.3603 28.6353 82.4114 28.5371 82.6754 28.5412C83.8744 28.5555 85.0734 28.5535 86.2745 28.5432C86.4893 28.5432 86.5527 28.6067 86.5466 28.8174C86.5323 29.3535 86.565 29.8916 86.5343 30.4257C86.5139 30.7858 86.5916 30.9352 86.9906 30.9004C87.4714 30.8594 87.9605 30.8901 88.5518 30.8901V30.8922Z" fill="#222222"/>
<path d="M25.3943 36.5047C25.7176 35.2934 26.0266 34.1783 26.3069 33.055C26.3703 32.8033 26.4767 32.7317 26.714 32.7521C27.1089 32.7849 27.6082 32.5946 27.8721 32.8278C28.1136 33.0427 28.1115 33.5358 28.2077 33.9082C28.4205 34.7225 28.6272 35.5389 28.8502 36.4126C29.0241 36.1978 29.0384 35.985 29.0957 35.7947C29.3679 34.8883 29.64 33.9819 29.8896 33.0672C29.9592 32.8115 30.0738 32.7296 30.3295 32.7501C30.6405 32.7746 30.9536 32.7624 31.2666 32.7542C31.4487 32.7501 31.547 32.7624 31.4713 32.9977C30.882 34.7962 30.3029 36.5988 29.728 38.4015C29.6748 38.5713 29.5847 38.604 29.4292 38.602C29.1039 38.5938 28.7786 38.5815 28.4553 38.6061C28.2057 38.6245 28.1136 38.5324 28.0522 38.2971C27.7903 37.272 27.5079 36.251 27.2317 35.2279C27.2133 35.1563 27.2174 35.0745 27.1028 35.0397C26.8204 36.1078 26.5258 37.1717 26.2619 38.2439C26.1923 38.5263 26.0818 38.6347 25.7892 38.6061C25.4925 38.5774 25.1876 38.5815 24.891 38.6061C24.6638 38.6245 24.5902 38.5201 24.5308 38.3319C23.9784 36.5743 23.4239 34.8167 22.8551 33.0631C22.7671 32.7951 22.8346 32.7399 23.0904 32.7542C23.4014 32.7706 23.7165 32.7746 24.0275 32.7542C24.2505 32.7378 24.3283 32.834 24.3835 33.0284C24.672 34.0596 24.9728 35.0888 25.2715 36.118C25.2981 36.2121 25.3309 36.3062 25.3963 36.5108L25.3943 36.5047Z" fill="#222222"/>
<path d="M9.07655 34.5404C9.07655 33.3066 9.08269 32.0708 9.07041 30.837C9.06837 30.5833 9.12157 30.4912 9.3937 30.5014C10.6787 30.5423 11.9677 30.4277 13.2486 30.5628C14.4537 30.6917 15.2006 31.504 15.2885 32.7112C15.4113 34.3726 14.4783 35.4141 12.7636 35.5103C12.2153 35.541 11.6628 35.5492 11.1165 35.5164C10.7646 35.496 10.7093 35.6208 10.7175 35.9338C10.74 36.7195 10.7155 37.5052 10.7298 38.291C10.7339 38.5344 10.6684 38.6183 10.4188 38.604C10.071 38.5836 9.71903 38.5815 9.37119 38.604C9.10929 38.6224 9.06632 38.516 9.06837 38.2848C9.0786 37.0387 9.07246 35.7906 9.07246 34.5425L9.07655 34.5404ZM10.7278 33.0202C10.7278 33.3189 10.7359 33.6176 10.7257 33.9164C10.7196 34.0964 10.7544 34.1885 10.9672 34.1803C11.5135 34.1578 12.0618 34.1946 12.6081 34.1067C13.2056 34.0105 13.5821 33.5992 13.5882 33.0243C13.5944 32.4452 13.2302 32.0258 12.6347 31.9173C12.201 31.8375 11.7651 31.8743 11.3293 31.858C10.7278 31.8375 10.7278 31.8457 10.7278 32.4616C10.7278 32.6478 10.7278 32.834 10.7278 33.0222V33.0202Z" fill="#222222"/>
<path d="M53.2583 37.7937C53.1969 37.9062 53.1703 37.9963 53.1109 38.0536C52.0245 39.1237 50.363 38.9661 49.5875 37.6587C48.8264 36.3737 48.8305 35.0008 49.5384 33.7015C50.1932 32.4984 51.8342 32.2344 52.9166 33.0774C53.0107 33.1511 53.1027 33.2309 53.248 33.3496C53.248 32.4718 53.2583 31.6554 53.2419 30.839C53.2378 30.5873 53.293 30.4809 53.5672 30.5014C53.8905 30.5259 54.2179 30.5218 54.5412 30.5014C54.7826 30.487 54.8297 30.5791 54.8297 30.8021C54.8235 33.2964 54.8215 35.7885 54.8297 38.2827C54.8297 38.518 54.7806 38.6347 54.5228 38.5999C54.4123 38.5835 54.2977 38.5999 54.1851 38.5978C53.9355 38.5958 53.6511 38.6654 53.4465 38.5692C53.1948 38.4526 53.4322 38.117 53.2583 37.7958V37.7937ZM50.6802 35.7067C50.6945 35.987 50.7027 36.298 50.7906 36.6008C50.9502 37.139 51.3717 37.5011 51.8853 37.5359C52.3887 37.5707 52.8736 37.2638 53.0721 36.7318C53.3381 36.0156 53.3299 35.2852 53.0557 34.5752C52.8756 34.1087 52.5135 33.8304 51.9958 33.8202C51.4618 33.8079 51.0996 34.0821 50.8684 34.5445C50.6904 34.9026 50.6802 35.2893 50.6802 35.7087V35.7067Z" fill="#222222"/>
<path d="M60.9455 37.8387C60.8664 38.3434 60.5977 38.5958 60.1393 38.5958C59.6455 38.5958 59.3986 38.3509 59.3986 37.8612C59.3986 35.5409 59.4068 33.2207 59.3884 30.9004C59.3864 30.5546 59.4887 30.4727 59.8058 30.5014C60.1025 30.528 60.4053 30.5198 60.704 30.5014C60.9209 30.4891 60.9803 30.5689 60.9762 30.7796C60.966 31.6144 60.9721 32.4513 60.9721 33.3557C61.3179 33.0611 61.6268 32.7991 62.0238 32.6825C63.1532 32.3531 64.3625 32.8749 64.827 33.9716C65.3201 35.1379 65.316 36.343 64.739 37.4827C64.0024 38.9395 62.1936 39.1871 61.0601 38.0229C61.011 37.9717 60.9823 37.9022 60.9434 37.8408L60.9455 37.8387ZM60.9782 35.59C60.9619 35.9686 60.9987 36.3389 61.1399 36.6929C61.3424 37.2044 61.8151 37.54 62.3123 37.5359C62.7686 37.5318 63.2024 37.2351 63.366 36.7707C63.6177 36.0545 63.6198 35.322 63.366 34.6079C63.1921 34.123 62.8238 33.8386 62.2898 33.8181C61.7885 33.7997 61.3527 34.0882 61.144 34.569C61.0028 34.8964 60.9619 35.2402 60.9803 35.5941L60.9782 35.59Z" fill="#222222"/>
<path d="M68.6716 36.7707C68.8312 36.5886 68.8517 36.3697 68.9192 36.1732C69.2732 35.1236 69.6231 34.0719 69.9607 33.0181C70.0241 32.8176 70.1121 32.7358 70.3269 32.748C70.6502 32.7665 70.9776 32.7685 71.3009 32.748C71.6078 32.7276 71.6896 32.791 71.5669 33.1102C71.0676 34.4259 70.5929 35.7517 70.108 37.0715C69.8174 37.8674 69.5269 38.6634 69.2323 39.4572C68.731 40.8097 67.9473 41.1351 66.3616 40.953C66.1938 40.9345 66.1222 40.8466 66.1119 40.689C66.1078 40.6399 66.0997 40.5908 66.0935 40.5396C66.069 40.2921 65.9442 39.9872 66.0444 39.8112C66.1733 39.5862 66.4884 39.8071 66.7258 39.7887C67.4624 39.7335 67.9923 38.9478 67.7284 38.2562C67.0757 36.5456 66.4209 34.8351 65.7682 33.1245C65.7252 33.0099 65.6863 32.8954 65.6372 32.7501C66.1447 32.7501 66.6194 32.7603 67.092 32.746C67.2946 32.7399 67.3355 32.8544 67.3867 33.0059C67.8082 34.254 68.2378 35.5021 68.6696 36.7666L68.6716 36.7707Z" fill="#222222"/>
<path d="M16.2789 35.6413C16.2789 33.8284 17.4984 32.6028 19.3051 32.6028C21.1036 32.6028 22.3599 33.8632 22.3558 35.6679C22.3517 37.4664 21.0852 38.7452 19.303 38.7452C17.4472 38.7452 16.2789 37.5462 16.2789 35.6413ZM20.7394 35.6085C20.721 35.4653 20.7087 35.2136 20.6514 34.9722C20.4775 34.256 19.9598 33.8161 19.3235 33.8141C18.6769 33.812 18.1572 34.2397 17.9792 34.9517C17.8462 35.4796 17.8503 36.0177 18.016 36.5395C18.2124 37.1513 18.7322 37.536 19.3235 37.5339C19.9005 37.5339 20.3895 37.1574 20.6044 36.5579C20.7026 36.2837 20.7189 35.9973 20.7414 35.6065L20.7394 35.6085Z" fill="#222222"/>
<path d="M35.4673 36.1241C34.9046 36.1241 34.344 36.1303 33.7813 36.1221C33.5808 36.118 33.5235 36.1732 33.5603 36.3819C33.6626 36.9282 33.9205 37.3334 34.4811 37.4909C35.0172 37.6403 35.455 37.4602 35.6862 36.9548C35.7804 36.7502 35.8806 36.7093 36.0832 36.7461C36.4147 36.8075 36.7482 36.8505 37.0817 36.8914C37.2761 36.916 37.3641 36.963 37.2699 37.1922C36.8996 38.1027 36.0239 38.7288 35.0376 38.7452C34.7266 38.7513 34.4177 38.7595 34.1046 38.7022C33.0161 38.5038 32.3511 37.8531 32.0667 36.8116C31.8662 36.0771 31.8723 35.3282 32.0667 34.5936C32.4207 33.2432 33.4949 32.5209 34.9681 32.6069C36.1978 32.6785 37.1513 33.5931 37.3518 34.9026C37.3948 35.185 37.4009 35.4735 37.4357 35.7558C37.4705 36.0341 37.3927 36.1507 37.0797 36.1323C36.5436 36.1037 36.0054 36.1241 35.4694 36.1241H35.4673ZM34.7184 35.1502C35.0294 35.1502 35.3405 35.1461 35.6515 35.1522C35.8029 35.1563 35.8684 35.1215 35.8622 34.9456C35.8418 34.3399 35.3425 33.8243 34.745 33.8141C34.1189 33.8038 33.6094 34.3031 33.5849 34.9333C33.5788 35.099 33.6258 35.1543 33.7875 35.1502C34.0985 35.142 34.4095 35.1481 34.7205 35.1502H34.7184Z" fill="#222222"/>
<path d="M46.1337 36.1241C45.571 36.1241 45.0104 36.1323 44.4477 36.12C44.2226 36.116 44.1776 36.1835 44.2185 36.4045C44.3229 36.9549 44.595 37.3477 45.1557 37.495C45.6774 37.6321 46.1132 37.4521 46.3322 36.9651C46.4324 36.7441 46.545 36.7093 46.7578 36.7502C47.0749 36.8116 47.3982 36.8505 47.7194 36.8894C47.9343 36.916 48.0223 36.9712 47.9118 37.2127C47.5046 38.1048 46.8294 38.6306 45.8513 38.7329C45.481 38.7718 45.1066 38.7657 44.7321 38.6961C43.6415 38.4935 42.9888 37.8285 42.7106 36.7871C42.5182 36.0668 42.5244 35.3262 42.7106 34.6039C43.0584 33.2555 44.1265 32.5271 45.6017 32.6048C46.8314 32.6703 47.787 33.5788 47.9998 34.8862C48.1334 35.7115 47.7849 36.1241 46.9542 36.1241C46.68 36.1241 46.4058 36.1241 46.1296 36.1241H46.1337ZM45.3582 35.1502C45.6692 35.1502 45.9802 35.142 46.2892 35.1543C46.4693 35.1604 46.5245 35.1031 46.5102 34.921C46.4652 34.3154 45.9905 33.8304 45.4053 33.8161C44.8037 33.7998 44.3249 34.2376 44.2431 34.8494C44.2145 35.0683 44.2431 35.1727 44.4989 35.1563C44.7833 35.1359 45.0697 35.1522 45.3562 35.1522L45.3582 35.1502Z" fill="#222222"/>
<path d="M40.0874 33.4948C40.2143 33.3352 40.2941 33.2268 40.3821 33.1245C40.8588 32.5618 41.5852 32.4309 42.2399 32.7787C42.3893 32.8585 42.4384 32.9444 42.3791 33.104C42.2583 33.4314 42.1397 33.7588 42.0333 34.0903C41.9801 34.2601 41.9064 34.2662 41.7632 34.1885C41.1084 33.8304 40.4189 34.0555 40.2818 35.0929C40.1447 36.1241 40.1979 37.1594 40.2061 38.1948C40.2081 38.5242 40.1283 38.6408 39.7948 38.6019C39.4143 38.5569 38.9027 38.7615 38.6858 38.518C38.4976 38.3073 38.6245 37.808 38.6224 37.4357C38.6204 35.9891 38.6306 34.5404 38.6142 33.0938C38.6101 32.8053 38.6981 32.7132 38.9723 32.7521C39.0951 32.7685 39.2219 32.7541 39.3467 32.7541C39.816 32.7541 40.0629 33.0017 40.0874 33.4969V33.4948Z" fill="#222222"/>
</g>
<defs>
<clipPath id="clip0_0_1031">
<rect width="146.985" height="41" fill="white"/>
</clipPath>
</defs>
</svg>
