<svg width="10" height="7" viewBox="0 0 10 7" fill="none" xmlns="http://www.w3.org/2000/svg">
<path fill-rule="evenodd" clip-rule="evenodd" d="M0.625 4.00003H8.04062L5.77 6.18004C5.54875 6.39204 5.585 6.70754 5.85 6.88404C6.11562 7.06105 6.50938 7.03205 6.73063 6.82004L9.85563 3.82002C9.88 3.79652 9.89188 3.76902 9.91 3.74302C9.925 3.72202 9.94312 3.70402 9.95438 3.68102C9.9825 3.62352 9.99937 3.56302 9.99937 3.50202C9.99937 3.50152 10 3.50052 10 3.50002C10 3.49952 9.99937 3.49852 9.99937 3.49802C9.99937 3.43702 9.9825 3.37652 9.95438 3.31902C9.94312 3.29602 9.925 3.27802 9.91 3.25702C9.89188 3.23102 9.88 3.20352 9.85563 3.18002L6.73063 0.180001C6.60625 0.0615004 6.42875 0 6.25 0C6.10875 0 5.96687 0.0380002 5.85 0.116001C5.585 0.292502 5.54875 0.608004 5.77 0.820005L8.04062 3.00002H0.625C0.28 3.00002 0 3.22402 0 3.50002C0 3.77602 0.28 4.00003 0.625 4.00003Z" fill="#FFC11C"/>
</svg>
