<svg width="67" height="40" viewBox="0 0 67 40" fill="none" xmlns="http://www.w3.org/2000/svg">
<path d="M66.3013 19.778C66.3013 30.5863 57.5131 39.4755 46.6037 39.4755C35.7954 39.4755 26.9062 30.5863 26.9062 19.778C26.9062 8.96958 35.6944 0.0804443 46.5027 0.0804443C57.5131 0.0804443 66.3013 8.96958 66.3013 19.778Z" fill="#F9B50B"/>
<path d="M39.9361 19.8789C39.9361 18.4647 39.7341 17.0505 39.5321 15.7373H27.4105C27.5116 15.0302 27.7136 14.4242 27.9156 13.6161H38.724C38.522 12.909 38.2189 12.2019 37.9159 11.4948H28.7237C29.0268 10.7877 29.4308 10.1816 29.8349 9.37351H36.8047C36.4007 8.66642 35.8956 7.95933 35.2896 7.25224H31.4511C32.0571 6.54515 32.6632 5.93907 33.4713 5.23198C30.0369 1.99957 25.3903 0.0803223 20.2386 0.0803223C9.53126 0.383361 0.64212 8.96946 0.64212 19.7778C0.64212 30.5862 9.43024 39.4754 20.3396 39.4754C25.4913 39.4754 30.0369 37.4551 33.5723 34.3237C34.2794 33.7176 34.8855 33.0105 35.5926 32.2024H31.5521C31.047 31.5964 30.5419 30.8893 30.1379 30.1822H37.0068C37.4108 29.5761 37.8149 28.869 38.1179 28.0609H28.9257C28.6227 27.4548 28.3197 26.7477 28.1176 25.9396H38.926C39.5321 24.1214 39.9361 22.1011 39.9361 19.8789Z" fill="#C8191C"/>
<path d="M27.3101 24.828L27.6131 23.0098C27.5121 23.0098 27.3101 23.1108 27.108 23.1108C26.401 23.1108 26.2999 22.7068 26.401 22.5047L27.007 18.8683H28.1182L28.4212 16.848H27.4111L27.6131 15.6359H25.4918C25.4918 15.6359 24.2797 22.5047 24.2797 23.3128C24.2797 24.525 24.9868 25.1311 25.9969 25.1311C26.603 25.1311 27.108 24.9291 27.3101 24.828Z" fill="white"/>
<path d="M28.0151 21.4956C28.0151 24.425 30.0353 25.1321 31.6515 25.1321C33.1667 25.1321 33.8738 24.829 33.8738 24.829L34.2779 22.8088C34.2779 22.8088 33.1667 23.3138 32.0556 23.3138C29.7323 23.3138 30.1363 21.5966 30.1363 21.5966H34.3789C34.3789 21.5966 34.6819 20.2834 34.6819 19.6774C34.6819 18.3642 33.9748 16.647 31.6515 16.647C29.6313 16.546 28.0151 18.8693 28.0151 21.4956ZM31.6515 18.4652C32.7627 18.4652 32.5606 19.7784 32.5606 19.8794H30.2373C30.3384 19.7784 30.5404 18.4652 31.6515 18.4652Z" fill="white"/>
<path d="M44.8845 24.8283L45.2885 22.505C45.2885 22.505 44.2784 23.01 43.4703 23.01C42.0561 23.01 41.349 21.8989 41.349 20.5857C41.349 18.0604 42.5612 16.7472 44.0764 16.7472C45.0865 16.7472 45.9956 17.3533 45.9956 17.3533L46.2987 15.131C46.2987 15.131 45.0865 14.626 43.8743 14.626C41.45 14.626 39.1267 16.7472 39.1267 20.6868C39.1267 23.3131 40.3389 25.0303 42.8642 25.0303C43.7733 25.1313 44.8845 24.8283 44.8845 24.8283Z" fill="white"/>
<path d="M15.8939 16.5454C14.4797 16.5454 13.3686 16.9495 13.3686 16.9495L13.0655 18.7677C13.0655 18.7677 13.9746 18.3636 15.3888 18.3636C16.0959 18.3636 16.702 18.4647 16.702 19.0707C16.702 19.4748 16.601 19.5758 16.601 19.5758H15.6918C13.8736 19.5758 11.9544 20.2829 11.9544 22.7072C11.9544 24.6264 13.1665 25.0305 13.9746 25.0305C15.3888 25.0305 16.0959 24.1214 16.1969 24.1214L16.0959 24.9295H17.8131L18.6212 19.1717C18.6212 16.6464 16.601 16.5454 15.8939 16.5454ZM16.2979 21.192C16.2979 21.495 16.0959 23.2123 14.8837 23.2123C14.2777 23.2123 14.0756 22.7072 14.0756 22.4042C14.0756 21.8991 14.3787 21.192 15.9949 21.192C16.1969 21.192 16.2979 21.192 16.2979 21.192Z" fill="white"/>
<path d="M20.6411 25.0307C21.1461 25.0307 23.7725 25.1317 23.7725 22.3033C23.7725 19.677 21.2471 20.1821 21.2471 19.1719C21.2471 18.6669 21.6512 18.4648 22.3583 18.4648C22.6613 18.4648 23.7725 18.5659 23.7725 18.5659L24.0755 16.6466C24.0755 16.6466 23.3684 16.4446 22.0552 16.4446C20.54 16.4446 18.9238 17.0507 18.9238 19.1719C18.9238 21.5962 21.5502 21.3942 21.5502 22.3033C21.5502 22.9094 20.8431 23.0104 20.338 23.0104C19.4289 23.0104 18.4188 22.7074 18.4188 22.7074L18.1157 24.6266C18.3178 24.8287 18.9238 25.0307 20.6411 25.0307Z" fill="white"/>
<path d="M62.2586 14.9294L61.8546 17.7578C61.8546 17.7578 61.0465 16.7477 59.8343 16.7477C57.9151 16.7477 56.2989 19.071 56.2989 21.7983C56.2989 23.5155 57.107 25.2328 58.9252 25.2328C60.1374 25.2328 60.9455 24.4247 60.9455 24.4247L60.8444 25.1317H62.9657L64.4809 15.1315L62.2586 14.9294ZM61.2485 20.3841C61.2485 21.4953 60.7434 23.0105 59.5313 23.0105C58.8242 23.0105 58.4201 22.4044 58.4201 21.2933C58.4201 19.576 59.1272 18.5659 60.1374 18.5659C60.8444 18.6669 61.2485 19.172 61.2485 20.3841Z" fill="white"/>
<path d="M4.48028 24.9297L5.69244 17.4548L5.89446 24.9297H7.30864L10.036 17.4548L8.92485 24.9297H11.1471L12.8644 14.9294H9.42991L7.30864 21.0912L7.20763 14.9294H4.17724L2.46002 24.9297H4.48028Z" fill="white"/>
<path d="M36.8038 24.9294C37.4099 21.4949 37.5109 18.6666 39.0261 19.1716C39.2281 17.8585 39.5311 17.2524 39.7332 16.7473H39.3291C38.42 16.7473 37.6119 17.9595 37.6119 17.9595L37.8139 16.8483H35.7937L34.4805 24.9294H36.8038Z" fill="white"/>
<path d="M49.7335 16.5454C48.3193 16.5454 47.2082 16.9495 47.2082 16.9495L46.9051 18.7677C46.9051 18.7677 47.8143 18.3636 49.2284 18.3636C49.9355 18.3636 50.5416 18.4647 50.5416 19.0707C50.5416 19.4748 50.4406 19.5758 50.4406 19.5758H49.5315C47.7133 19.5758 45.794 20.2829 45.794 22.7072C45.794 24.6264 47.0062 25.0305 47.8143 25.0305C49.2284 25.0305 49.9355 24.1214 50.0366 24.1214L49.9355 24.9295H51.8548L52.6629 19.1717C52.6629 16.6464 50.4406 16.5454 49.7335 16.5454ZM50.2386 21.192C50.2386 21.495 50.0365 23.2123 48.8244 23.2123C48.2183 23.2123 48.0163 22.7072 48.0163 22.4042C48.0163 21.8991 48.3193 21.192 49.9355 21.192C50.1376 21.192 50.1376 21.192 50.2386 21.192Z" fill="white"/>
<path d="M54.2787 24.9294C54.8847 21.4949 54.9858 18.6666 56.5009 19.1716C56.703 17.8585 57.006 17.2524 57.208 16.7473H56.804C55.8949 16.7473 55.0868 17.9595 55.0868 17.9595L55.2888 16.8483H53.2685L51.9554 24.9294H54.2787Z" fill="white"/>
</svg>
