<svg width="19" height="19" viewBox="0 0 19 19" fill="none" xmlns="http://www.w3.org/2000/svg">
<path fill-rule="evenodd" clip-rule="evenodd" d="M8.59181 2.65565C5.31336 2.65565 2.65565 5.31336 2.65565 8.59181C2.65565 11.8703 5.31336 14.528 8.59181 14.528C11.8703 14.528 14.528 11.8703 14.528 8.59181C14.528 5.31336 11.8703 2.65565 8.59181 2.65565ZM0 8.59181C0 3.84669 3.84669 0 8.59181 0C13.3369 0 17.1836 3.84669 17.1836 8.59181C17.1836 13.3369 13.3369 17.1836 8.59181 17.1836C3.84669 17.1836 0 13.3369 0 8.59181Z" fill="#373737"/>
<path fill-rule="evenodd" clip-rule="evenodd" d="M12.7835 12.7835C13.302 12.2649 14.1427 12.2649 14.6613 12.7835L18.6111 16.7333C19.1296 17.2518 19.1296 18.0925 18.6111 18.6111C18.0925 19.1296 17.2518 19.1296 16.7333 18.6111L12.7835 14.6613C12.2649 14.1427 12.2649 13.302 12.7835 12.7835Z" fill="#373737"/>
</svg>
