<svg width="87" height="28" viewBox="0 0 87 28" fill="none" xmlns="http://www.w3.org/2000/svg">
<path d="M81.0793 1.08569H75.6148C73.9628 1.08569 72.6919 1.59402 71.9295 3.24607L61.5088 27.0102H68.8795C68.8795 27.0102 70.1503 23.8332 70.4045 23.0707C71.167 23.0707 78.4106 23.0707 79.4272 23.0707C79.6814 23.9602 80.3168 26.8831 80.3168 26.8831H86.925L81.0793 1.08569ZM72.4378 17.7333C73.0732 16.2083 75.2336 10.4897 75.2336 10.4897C75.2336 10.6168 75.869 8.9647 76.1231 8.07514L76.6314 10.3626C76.6314 10.3626 78.0293 16.5895 78.2835 17.8604H72.4378V17.7333Z" fill="#3362AB"/>
<path d="M62.0157 18.4959C62.0157 23.8333 57.1866 27.3916 49.6888 27.3916C46.5118 27.3916 43.4619 26.7561 41.8098 25.9937L42.8265 20.1479L43.716 20.5292C46.0035 21.5458 47.5284 21.9271 50.3242 21.9271C52.3575 21.9271 54.5179 21.1646 54.5179 19.3855C54.5179 18.2417 53.6283 17.4792 50.8325 16.2084C48.1638 14.9376 44.6056 12.9043 44.6056 9.219C44.6056 4.13577 49.5617 0.70459 56.5512 0.70459C59.2199 0.70459 61.5073 1.21291 62.9052 1.84832L61.8886 7.43987L61.3802 6.93155C60.1094 6.42322 58.4574 5.9149 56.0429 5.9149C53.3742 6.04198 52.1034 7.18571 52.1034 8.20235C52.1034 9.34608 53.6283 10.2356 56.0429 11.3794C60.1094 13.2856 62.0157 15.446 62.0157 18.4959Z" fill="#3362AB"/>
<path d="M0 1.34096L0.127081 0.832642H11.056C12.581 0.832642 13.7247 1.34096 14.106 2.99301L16.5205 14.4303C14.106 8.33041 8.51441 3.37426 0 1.34096Z" fill="#F9B50B"/>
<path d="M31.8973 1.08594L20.8412 26.8833H13.3435L6.98943 5.27961C11.5643 8.20247 15.3768 12.7774 16.7747 15.9544L17.5371 18.6231L24.3995 0.958862H31.8973V1.08594Z" fill="#3362AB"/>
<path d="M34.8212 0.958862H41.8106L37.3628 26.8833H30.3734L34.8212 0.958862Z" fill="#3362AB"/>
</svg>
