<svg width="18" height="31" viewBox="0 0 18 31" fill="none" xmlns="http://www.w3.org/2000/svg">
<ellipse cx="11.954" cy="20.03" rx="3.25085" ry="5.20136" fill="#FFC11C"/>
<path fill-rule="evenodd" clip-rule="evenodd" d="M16.7453 14.6245H12.1286L14.8211 6.3365H7.10398L2.82816 18.1562L8.38001 18.1038L5.64956 30.3761L16.7453 14.6245Z" fill="#FFC11C"/>
<path d="M12.6825 26.2516C11.8065 26.2516 11.0145 26.1016 10.3065 25.8016C9.61052 25.5016 9.05852 25.0696 8.65052 24.5056C8.24252 23.9416 8.03252 23.2756 8.02052 22.5076H10.7205C10.7565 23.0236 10.9365 23.4316 11.2605 23.7316C11.5965 24.0316 12.0525 24.1816 12.6285 24.1816C13.2165 24.1816 13.6785 24.0436 14.0145 23.7676C14.3505 23.4796 14.5185 23.1076 14.5185 22.6516C14.5185 22.2796 14.4045 21.9736 14.1765 21.7336C13.9485 21.4936 13.6605 21.3076 13.3125 21.1756C12.9765 21.0316 12.5085 20.8756 11.9085 20.7076C11.0925 20.4676 10.4265 20.2336 9.91052 20.0056C9.40652 19.7656 8.96852 19.4116 8.59652 18.9436C8.23652 18.4636 8.05652 17.8276 8.05652 17.0356C8.05652 16.2916 8.24252 15.6436 8.61452 15.0916C8.98652 14.5396 9.50852 14.1196 10.1805 13.8316C10.8525 13.5316 11.6205 13.3816 12.4845 13.3816C13.7805 13.3816 14.8305 13.6996 15.6345 14.3356C16.4505 14.9596 16.9005 15.8356 16.9845 16.9636H14.2125C14.1885 16.5316 14.0025 16.1776 13.6545 15.9016C13.3185 15.6136 12.8685 15.4696 12.3045 15.4696C11.8125 15.4696 11.4165 15.5956 11.1165 15.8476C10.8285 16.0996 10.6845 16.4656 10.6845 16.9456C10.6845 17.2816 10.7925 17.5636 11.0085 17.7916C11.2365 18.0076 11.5125 18.1876 11.8365 18.3316C12.1725 18.4636 12.6405 18.6196 13.2405 18.7996C14.0565 19.0396 14.7225 19.2796 15.2385 19.5196C15.7545 19.7596 16.1985 20.1196 16.5705 20.5996C16.9425 21.0796 17.1285 21.7096 17.1285 22.4896C17.1285 23.1616 16.9545 23.7856 16.6065 24.3616C16.2585 24.9376 15.7485 25.3996 15.0765 25.7476C14.4045 26.0836 13.6065 26.2516 12.6825 26.2516Z" fill="#3C3C3C"/>
<path d="M10.3065 25.8016L9.91069 26.72L9.91637 26.7224L10.3065 25.8016ZM8.65052 24.5056L7.8403 25.0917L8.65052 24.5056ZM8.02052 22.5076V21.5076H7.00478L7.02065 22.5232L8.02052 22.5076ZM10.7205 22.5076L11.7181 22.438L11.6532 21.5076H10.7205V22.5076ZM11.2605 23.7316L10.5811 24.4654L10.5878 24.4715L10.5945 24.4776L11.2605 23.7316ZM14.0145 23.7676L14.6493 24.5403L14.6574 24.5337L14.6653 24.5269L14.0145 23.7676ZM14.1765 21.7336L13.4515 22.4224L14.1765 21.7336ZM13.3125 21.1756L12.9186 22.0948L12.9381 22.1031L12.9579 22.1106L13.3125 21.1756ZM11.9085 20.7076L11.6263 21.6671L11.6389 21.6706L11.9085 20.7076ZM9.91052 20.0056L9.48059 20.9085L9.49339 20.9146L9.50636 20.9203L9.91052 20.0056ZM8.59652 18.9436L7.79652 19.5436L7.80496 19.5549L7.8137 19.5659L8.59652 18.9436ZM8.61452 15.0916L9.44379 15.6505L8.61452 15.0916ZM10.1805 13.8316L10.5744 14.7508L10.5813 14.7478L10.5882 14.7448L10.1805 13.8316ZM15.6345 14.3356L15.0141 15.1199L15.0206 15.125L15.0271 15.13L15.6345 14.3356ZM16.9845 16.9636V17.9636H18.0618L17.9818 16.8894L16.9845 16.9636ZM14.2125 16.9636L13.2141 17.0191L13.2665 17.9636H14.2125V16.9636ZM13.6545 15.9016L13.0037 16.6609L13.0182 16.6733L13.0331 16.6851L13.6545 15.9016ZM11.1165 15.8476L10.4733 15.0819L10.4656 15.0884L10.458 15.095L11.1165 15.8476ZM11.0085 17.7916L10.2826 18.4794L10.3012 18.499L10.3208 18.5176L11.0085 17.7916ZM11.8365 18.3316L11.4304 19.2454L11.4504 19.2543L11.4709 19.2624L11.8365 18.3316ZM13.2405 18.7996L12.9532 19.7575L12.9584 19.759L13.2405 18.7996ZM16.5705 20.5996L15.7801 21.2122L16.5705 20.5996ZM16.6065 24.3616L15.7506 23.8445V23.8445L16.6065 24.3616ZM15.0765 25.7476L15.5237 26.642L15.5301 26.6389L15.5364 26.6356L15.0765 25.7476ZM12.6825 25.2516C11.922 25.2516 11.2652 25.1218 10.6967 24.8809L9.91637 26.7224C10.7638 27.0815 11.691 27.2516 12.6825 27.2516V25.2516ZM10.7024 24.8833C10.1567 24.6481 9.7538 24.3246 9.46075 23.9195L7.8403 25.0917C8.36325 25.8146 9.06433 26.3551 9.91069 26.7199L10.7024 24.8833ZM9.46075 23.9195C9.18537 23.5388 9.02954 23.0771 9.0204 22.492L7.02065 22.5232C7.0355 23.4742 7.29968 24.3444 7.8403 25.0917L9.46075 23.9195ZM8.02052 23.5076H10.7205V21.5076H8.02052V23.5076ZM9.72295 22.5772C9.77341 23.3005 10.0388 23.9633 10.5811 24.4654L11.9399 22.9979C11.8342 22.9 11.7396 22.7467 11.7181 22.438L9.72295 22.5772ZM10.5945 24.4776C11.1604 24.9828 11.8774 25.1816 12.6285 25.1816V23.1816C12.2276 23.1816 12.0327 23.0805 11.9265 22.9857L10.5945 24.4776ZM12.6285 25.1816C13.3665 25.1816 14.0802 25.0078 14.6493 24.5403L13.3798 22.9949C13.2769 23.0794 13.0665 23.1816 12.6285 23.1816V25.1816ZM14.6653 24.5269C15.2306 24.0424 15.5185 23.3894 15.5185 22.6516H13.5185C13.5185 22.8259 13.4705 22.9169 13.3637 23.0084L14.6653 24.5269ZM15.5185 22.6516C15.5185 22.0576 15.3284 21.4942 14.9015 21.0449L13.4515 22.4224C13.4806 22.453 13.5185 22.5016 13.5185 22.6516H15.5185ZM14.9015 21.0449C14.5579 20.6832 14.138 20.4192 13.6672 20.2406L12.9579 22.1106C13.1831 22.196 13.3391 22.3041 13.4515 22.4224L14.9015 21.0449ZM13.7064 20.2565C13.3116 20.0873 12.7955 19.9175 12.1782 19.7447L11.6389 21.6706C12.2216 21.8337 12.6414 21.976 12.9186 22.0948L13.7064 20.2565ZM12.1907 19.7483C11.3977 19.515 10.7766 19.295 10.3147 19.0909L9.50636 20.9203C10.0765 21.1722 10.7874 21.4202 11.6264 21.667L12.1907 19.7483ZM10.3405 19.1028C9.98354 18.9328 9.66348 18.6788 9.37935 18.3214L7.8137 19.5659C8.27357 20.1444 8.8295 20.5984 9.48059 20.9085L10.3405 19.1028ZM9.39652 18.3436C9.20241 18.0848 9.05652 17.6803 9.05652 17.0356H7.05652C7.05652 17.975 7.27064 18.8424 7.79652 19.5436L9.39652 18.3436ZM9.05652 17.0356C9.05652 16.4664 9.19593 16.0183 9.44379 15.6505L7.78526 14.5328C7.28911 15.269 7.05652 16.1168 7.05652 17.0356H9.05652ZM9.44379 15.6505C9.69786 15.2735 10.0611 14.9708 10.5744 14.7508L9.7866 12.9125C8.95592 13.2685 8.27519 13.8058 7.78526 14.5328L9.44379 15.6505ZM10.5882 14.7448C11.1115 14.5111 11.7368 14.3816 12.4845 14.3816V12.3816C11.5042 12.3816 10.5935 12.5521 9.77287 12.9185L10.5882 14.7448ZM12.4845 14.3816C13.6159 14.3816 14.429 14.657 15.0141 15.1199L16.2549 13.5513C15.232 12.7422 13.9451 12.3816 12.4845 12.3816V14.3816ZM15.0271 15.13C15.5919 15.5619 15.9221 16.1623 15.9873 17.0379L17.9818 16.8894C17.879 15.5089 17.3092 14.3574 16.242 13.5413L15.0271 15.13ZM16.9845 15.9636H14.2125V17.9636H16.9845V15.9636ZM15.211 16.9082C15.1707 16.1822 14.8411 15.5664 14.2759 15.1181L13.0331 16.6851C13.164 16.7889 13.2064 16.8811 13.2141 17.0191L15.211 16.9082ZM14.3053 15.1424C13.7428 14.6602 13.04 14.4696 12.3045 14.4696V16.4696C12.697 16.4696 12.8942 16.567 13.0037 16.6609L14.3053 15.1424ZM12.3045 14.4696C11.6391 14.4696 10.9958 14.6431 10.4733 15.0819L11.7597 16.6133C11.8373 16.5482 11.9859 16.4696 12.3045 16.4696V14.4696ZM10.458 15.095C9.89985 15.5834 9.68452 16.2563 9.68452 16.9456H11.6845C11.6845 16.6749 11.7572 16.6158 11.775 16.6002L10.458 15.095ZM9.68452 16.9456C9.68452 17.5179 9.87756 18.0519 10.2826 18.4794L11.7345 17.1039C11.7075 17.0754 11.6845 17.0454 11.6845 16.9456H9.68452ZM10.3208 18.5176C10.6412 18.8211 11.0158 19.0612 11.4304 19.2454L12.2427 17.4178C12.0093 17.3141 11.8319 17.1941 11.6963 17.0657L10.3208 18.5176ZM11.4709 19.2624C11.8446 19.4092 12.3429 19.5744 12.9532 19.7574L13.5279 17.8418C12.9382 17.6649 12.5005 17.5181 12.2022 17.4009L11.4709 19.2624ZM12.9584 19.759C13.7475 19.9911 14.3621 20.2149 14.8168 20.4263L15.6603 18.6129C15.0829 18.3444 14.3656 18.0882 13.5227 17.8403L12.9584 19.759ZM14.8168 20.4263C15.1786 20.5946 15.4991 20.8496 15.7801 21.2122L17.3609 19.9871C16.898 19.3897 16.3305 18.9246 15.6603 18.6129L14.8168 20.4263ZM15.7801 21.2122C15.9818 21.4724 16.1285 21.8677 16.1285 22.4896H18.1285C18.1285 21.5515 17.9033 20.6868 17.3609 19.9871L15.7801 21.2122ZM16.1285 22.4896C16.1285 22.9791 16.0045 23.4243 15.7506 23.8445L17.4624 24.8787C17.9046 24.147 18.1285 23.3442 18.1285 22.4896H16.1285ZM15.7506 23.8445C15.5094 24.2437 15.1459 24.5856 14.6167 24.8596L15.5364 26.6356C16.3511 26.2137 17.0076 25.6315 17.4624 24.8787L15.7506 23.8445ZM14.6293 24.8532C14.1244 25.1056 13.4863 25.2516 12.6825 25.2516V27.2516C13.7267 27.2516 14.6846 27.0616 15.5237 26.642L14.6293 24.8532Z" fill="#FFC11C"/>
<path d="M12.528 8.0599L7.92 20.6239H4.86L0.252 8.0599H2.952L6.408 18.0499L9.846 8.0599H12.528Z" fill="#3C3C3C"/>
<path d="M12.528 8.0599L13.4668 8.40423L13.9599 7.0599H12.528V8.0599ZM7.92 20.6239V21.6239H8.61837L8.85885 20.9682L7.92 20.6239ZM4.86 20.6239L3.92115 20.9682L4.16163 21.6239H4.86V20.6239ZM0.252 8.0599V7.0599H-1.1799L-0.686847 8.40423L0.252 8.0599ZM2.952 8.0599L3.89705 7.73297L3.6642 7.0599H2.952V8.0599ZM6.408 18.0499L5.46295 18.3768L6.41047 21.1157L7.35357 18.3753L6.408 18.0499ZM9.846 8.0599V7.0599H9.13258L8.90043 7.73449L9.846 8.0599ZM11.5892 7.71557L6.98115 20.2796L8.85885 20.9682L13.4668 8.40423L11.5892 7.71557ZM7.92 19.6239H4.86V21.6239H7.92V19.6239ZM5.79885 20.2796L1.19085 7.71557L-0.686847 8.40423L3.92115 20.9682L5.79885 20.2796ZM0.252 9.0599H2.952V7.0599H0.252V9.0599ZM2.00695 8.38684L5.46295 18.3768L7.35305 17.723L3.89705 7.73297L2.00695 8.38684ZM7.35357 18.3753L10.7916 8.38531L8.90043 7.73449L5.46243 17.7245L7.35357 18.3753ZM9.846 9.0599H12.528V7.0599H9.846V9.0599Z" fill="#FFC11C"/>
</svg>
